<?xml version="1.0" encoding="utf-8"?>
<!-- Generator: Adobe Illustrator 19.2.0, SVG Export Plug-In . SVG Version: 6.00 Build 0)  -->
<svg version="1.1" id="Layer_1" xmlns="http://www.w3.org/2000/svg" xmlns:xlink="http://www.w3.org/1999/xlink" x="0px" y="0px"
	 viewBox="0 0 2160 2160" style="enable-background:new 0 0 2160 2160;" xml:space="preserve">
<style type="text/css">
	.st0{fill:#7FCBCB;}
	.st1{fill:#F8F3E1;}
</style>
<g>
	<polygon class="st0" points="1079.6,248.2 1284.5,105.3 1413.7,319.1 1658.8,272 1689.9,519.7 1933.1,576.6 1860.7,815.5 
		2059.7,966.4 1896.3,1155.1 2016.9,1373.9 1790.8,1479.9 1812,1728.8 1562.3,1733.6 1480.4,1969.6 1250.3,1872.7 1079.6,2054.9 
		908.8,1872.7 678.8,1969.6 596.9,1733.6 347.2,1728.8 368.4,1479.9 142.3,1373.9 262.8,1155.1 99.6,966.4 298.6,815.5 226.2,576.6 
		469.3,519.7 500.3,272 745.6,319.1 874.7,105.3 	"/>
	<g>
		<path class="st1" d="M878.2,1543.4c-87.3,4.8-155.4-21.5-155.4-125.5V770.2c0-107.6,70.5-142.2,154.2-151.8
			c83.7-9.6,155.3,10.8,155.3,118.3v137.5l-107.6,15.5v-141c0-31.1-11.9-45.4-43-41.8c-28.7,3.6-49,19.1-49,51.4v653.7
			c0,28.7,13.1,40.6,38.2,40.6c21.5,0,38.3-6,55-13.1v-329.8l-52.6,6v-99.2l158.9-14.3v497.1C986.9,1524.3,933.2,1541,878.2,1543.4z
			"/>
		<path class="st1" d="M1282.3,1543.4c-87.3,4.8-155.3-21.5-155.3-125.5V770.2c0-107.6,70.5-142.2,154.1-151.8
			c83.7-9.6,155.3,10.8,155.3,118.3v137.5l-107.5,15.5v-141c0-31.1-11.9-45.4-43-41.8c-28.7,3.6-49,19.1-49,51.4v653.7
			c0,28.7,13.1,40.6,38.2,40.6c21.5,0,38.3-6,55-13.1v-329.8l-52.6,6v-99.2l158.9-14.3v497.1C1391,1524.3,1337.3,1541,1282.3,1543.4
			z"/>
	</g>
</g>
</svg>
